# xmcd
# 
# Track frame offsets:
#     150
#     11261
#     23587
#     35433
#     45770
#     57518
#     68556
#     80596
#     92680
#     104535
#     118015
#     129763
#     142256
#     156312
#     168466
#     180282
# 
# Disc length: 2521
# 
# Revision: 1
# Processed by: cddbd v1.5.2PL0 Copyright (c) Steve Scherf et al.
# Submitted via: fre:ac v1.0.31
# 
DISCID=c409d710
DTITLE=Various Artist - Ultimate Country [ CD 8 ]
DYEAR=2005
DGENRE=Country
TTITLE0=Conway Twitty - It's Only Make Believe
TTITLE1=Lynn Anderson - Stand by your Man
TTITLE2=Hank Williams - Take these Chains from my Heart
TTITLE3=Buck Owens - Excuse me (I Think I've Got a Heartache)
TTITLE4=Charley Pride - There Goes my Everything
TTITLE5=Anne Murray - The Last Thing on my Mind
TTITLE6=Billie Jo Spears - Look What They've Done to my Song Ma
TTITLE7=Dolly Parton - Two Little Orphans
TTITLE8=Jeannie C Riley - Country Girl
TTITLE9=Jimmy Dean - Big Bad John
TTITLE10=Marie Osmond - I'll Take you Back
TTITLE11=Flying Burrito Brothers - She's a Friend of a Friend
TTITLE12=Lack J Dalton - 16th Avenue
TTITLE13=Jack Blanchard and Misty Morgan - Tennessee Birdwalk
TTITLE14=Barbara Fairchild - Colour my World
TTITLE15=Frankie Laine - Your Cheatin' Heart
EXTD=
EXTT0=
EXTT1=
EXTT2=
EXTT3=
EXTT4=
EXTT5=
EXTT6=
EXTT7=
EXTT8=
EXTT9=
EXTT10=
EXTT11=
EXTT12=
EXTT13=
EXTT14=
EXTT15=
PLAYORDER=
